<?xml version="1.0" encoding="UTF-8"?>
<svg id="Layer_1" data-name="Layer 1" xmlns="http://www.w3.org/2000/svg" viewBox="0 0 200 200">
  <defs>
    <style>
      .cls-1 {
        fill-rule: #1679ed;
        fill: #1679ed;
      }
    </style>
  </defs>
  <path id="_218151056" data-name=" 218151056" class="cls-1" d="m18.67,172.91h162.66c1.91,0,3.47,1.55,3.47,3.47v6.95c0,1.91-1.55,3.47-3.47,3.47H18.67c-1.91,0-3.47-1.55-3.47-3.47v-6.95c0-1.91,1.55-3.47,3.47-3.47Z"/>
  <g>
    <path id="_218151200" data-name=" 218151200" class="cls-1" d="m68.02,68.01l49.83,36.25c2.48,1.8,5.95,1.24,7.74-1.24s1.24-5.95-1.24-7.74l-52.96-38.53c-2.01-1.65-4.75-1.65-6.76,0L11.68,95.28c-2.48,1.8-3.03,5.26-1.24,7.74s5.26,3.03,7.74,1.24l49.83-36.25Z"/>
    <path id="_218151488" data-name=" 218151488" class="cls-1" d="m56.1,145.3c0-1.39-1.13-2.52-2.52-2.52s-2.52,1.13-2.52,2.52v4.37c0,1.39,1.13,2.52,2.52,2.52s2.52-1.13,2.52-2.52v-4.37Z"/>
  </g>
  <g>
    <circle id="_218151464" data-name=" 218151464" class="cls-1" cx="156.86" cy="41.85" r="14.37"/>
    <g>
      <path id="_218151392" data-name=" 218151392" class="cls-1" d="m153.84,20.54c0,1.67,1.35,3.02,3.02,3.02s3.02-1.35,3.02-3.02v-4.31c0-1.67-1.35-3.02-3.02-3.02s-3.02,1.35-3.02,3.02v4.31Z"/>
      <path id="_218150576" data-name=" 218150576" class="cls-1" d="m169.8,24.64c-1.18,1.18-1.18,3.09,0,4.27s3.09,1.18,4.27,0l3.05-3.05c1.18-1.18,1.18-3.09,0-4.27s-3.09-1.18-4.27,0l-3.05,3.05Z"/>
      <path id="_218150384" data-name=" 218150384" class="cls-1" d="m178.18,38.83c-1.67,0-3.02,1.35-3.02,3.02s1.35,3.02,3.02,3.02h4.31c1.67,0,3.02-1.35,3.02-3.02s-1.35-3.02-3.02-3.02h-4.31Z"/>
      <path id="_218150816" data-name=" 218150816" class="cls-1" d="m174.07,54.78c-1.18-1.18-3.09-1.18-4.27,0s-1.18,3.09,0,4.27l3.05,3.05c1.18,1.18,3.09,1.18,4.27,0s1.18-3.09,0-4.27l-3.05-3.05Z"/>
      <path id="_218150720" data-name=" 218150720" class="cls-1" d="m159.88,63.16c0-1.67-1.35-3.02-3.02-3.02s-3.02,1.35-3.02,3.02v4.31c0,1.67,1.35,3.02,3.02,3.02s3.02-1.35,3.02-3.02v-4.31Z"/>
      <path id="_218150672" data-name=" 218150672" class="cls-1" d="m143.93,59.06c1.18-1.18,1.18-3.09,0-4.27-1.18-1.18-3.09-1.18-4.27,0l-3.05,3.05c-1.18,1.18-1.18,3.09,0,4.27s3.09,1.18,4.27,0l3.05-3.05Z"/>
      <path id="_218150288" data-name=" 218150288" class="cls-1" d="m135.55,44.87c1.67,0,3.02-1.35,3.02-3.02s-1.35-3.02-3.02-3.02h-4.31c-1.67,0-3.02,1.35-3.02,3.02s1.35,3.02,3.02,3.02h4.31Z"/>
      <path id="_218150552" data-name=" 218150552" class="cls-1" d="m139.66,28.92c1.18,1.18,3.09,1.18,4.27,0s1.18-3.09,0-4.27l-3.05-3.05c-1.18-1.18-3.09-1.18-4.27,0s-1.18,3.09,0,4.27l3.05,3.05Z"/>
    </g>
  </g>
  <path id="_218150240" data-name=" 218150240" class="cls-1" d="m48.49,30.13c-2.29-3.26-5.83-6.33-9.8-7.13-1.63-.33-3.21.73-3.54,2.36s.73,3.21,2.36,3.54c3.74.76,6.78,5.26,8.14,8.56.43,1.2,1.57,2,2.84,2,1.27,0,2.41-.8,2.84-2,1.36-3.29,4.4-7.8,8.14-8.56,1.63-.33,2.69-1.91,2.36-3.54s-1.91-2.69-3.54-2.36c-3.97.8-7.51,3.87-9.8,7.13Z"/>
  <path id="_218150216" data-name=" 218150216" class="cls-1" d="m83.19,38.18c-2.29-3.26-5.83-6.33-9.8-7.13-1.63-.33-3.21.73-3.54,2.36-.33,1.63.73,3.21,2.36,3.54,3.74.76,6.78,5.26,8.14,8.56.43,1.2,1.57,2,2.84,2,1.27,0,2.41-.8,2.84-2,1.36-3.29,4.4-7.8,8.14-8.56,1.63-.33,2.69-1.91,2.36-3.54s-1.91-2.69-3.54-2.36c-3.97.8-7.51,3.87-9.8,7.13h0Z"/>
  <path id="_218150000" data-name=" 218150000" class="cls-1" d="m152.55,78.29c-5.64-3.25-12.69-2.72-17.77,1.33l18.15,10.48c2.05.48,4.01,1.28,5.82,2.39-.05-2,.21-4,.75-5.91-1.27-3.49-3.73-6.43-6.95-8.29Z"/>
  <path id="_218150168" data-name=" 218150168" class="cls-1" d="m150.84,93.77c-7.34-1.15-14.5,2.99-17.18,9.92-.98,2.54-1.3,5.33-.89,8.06l25.5-14.72c-2.17-1.73-4.74-2.84-7.43-3.26h0Z"/>
  <path id="_218150120" data-name=" 218150120" class="cls-1" d="m172.37,93.77c-2.69.42-5.26,1.53-7.43,3.26l25.5,14.72c.41-2.74.09-5.52-.89-8.06-2.67-6.92-9.85-11.06-17.18-9.92Z"/>
  <path id="_218150144" data-name=" 218150144" class="cls-1" d="m170.66,78.29c-5.4,3.12-8.45,9.11-7.82,15.3,2.22-1.68,4.77-2.86,7.44-3.49l18.15-10.48c-5.08-4.05-12.13-4.58-17.77-1.33h0Z"/>
  <path id="_218149952" data-name=" 218149952" class="cls-1" d="m154.99,144.14c-2.89,12.17-6.64,20.59-8.74,24.74h14.27c2.82-7.78,4.8-15.66,6-23.61-1.93.32-3.96.39-5.92.2-1.97-.19-3.9-.64-5.61-1.34Zm3.89-42.84c.33,7.73.11,14.89-.46,21.46,1.41.76,2.94,1.23,4.53,1.39,1.6.17,3.28.04,4.99-.38-.12-7.2-.81-14.4-2.03-21.56l-4.31-2.49-2.72,1.57Zm3.66,26.85c-1.58-.17-3.1-.55-4.55-1.15-.55,4.72-1.27,9.11-2.11,13.13,1.48.72,3.25,1.17,5.1,1.34,2.05.2,4.17.06,6.1-.42.17-1.44.31-2.88.43-4.32.24-2.95.39-5.9.43-8.86-1.84.36-3.65.45-5.4.27h0Z"/>
  <path class="cls-1" d="m68.01,72.99l-45.1,32.82v63.08h11.93v-42.8h26.59v42.8h51.69v-63.08l-45.11-32.82Zm-10.27,25.24c0-5.67,4.6-10.27,10.27-10.27s10.27,4.6,10.27,10.27-4.6,10.27-10.27,10.27-10.27-4.6-10.27-10.27Zm28.25,52.34c0,2.66-2.17,4.83-4.83,4.83h-3.65c-2.66,0-4.83-2.17-4.83-4.83v-3.65c0-2.66,2.17-4.83,4.83-4.83h3.65c2.66,0,4.83,2.17,4.83,4.83v3.65Zm0-16.11c0,2.66-2.17,4.83-4.83,4.83h-3.65c-2.66,0-4.83-2.17-4.83-4.83v-3.65c0-2.66,2.17-4.83,4.83-4.83h3.65c2.66,0,4.83,2.17,4.83,4.83v3.65Zm16.11,16.11c0,2.66-2.17,4.83-4.83,4.83h-3.65c-2.66,0-4.83-2.17-4.83-4.83v-3.65c0-2.66,2.17-4.83,4.83-4.83h3.65c2.66,0,4.83,2.17,4.83,4.83v3.65Zm0-16.11c0,2.66-2.17,4.83-4.83,4.83h-3.65c-2.66,0-4.83-2.17-4.83-4.83v-3.65c0-2.66,2.17-4.83,4.83-4.83h3.65c2.66,0,4.83,2.17,4.83,4.83v3.65Z"/>
</svg>